<svg width="42" height="44" viewBox="0 0 42 44" fill="none" xmlns="http://www.w3.org/2000/svg">
<path d="M18.5 0H8.5C7.96957 0 7.46086 0.159852 7.08579 0.44439C6.71071 0.728928 6.5 1.11484 6.5 1.51724V12.6993C4.366 13.6188 0.5 16.0039 0.5 21.2414V42.4828C0.5 42.8852 0.710714 43.2711 1.08579 43.5556C1.46086 43.8401 1.96957 44 2.5 44H12.5V40.9655H4.5V21.2414C4.5 15.5457 10.5 14.7476 10.5 14.7476V3.03448H16.5V13.6552H20.5V1.51724C20.5 1.11484 20.2893 0.728928 19.9142 0.44439C19.5391 0.159852 19.0304 0 18.5 0Z" fill="#3F3B2B"/>
<path d="M36.2822 17.0692L41.5 12.9443L39.0407 11L33.3132 15.5279C32.987 15.7857 32.8037 16.1354 32.8036 16.5V22H20.5L22.488 44H37.9014L39.8894 22H36.2822V17.0692ZM34.6647 41.25H25.7248L24.236 24.75H36.1535L34.6647 41.25Z" fill="#3F3B2B"/>
</svg>
