<svg width="30" height="26" viewBox="0 0 30 26" fill="none" xmlns="http://www.w3.org/2000/svg">
<path d="M18.7615 23.8958L12.4991 18.5295L14.562 16.7618L18.7615 20.3604L27.0867 13.2263L29.1496 14.9941L18.7615 23.8958ZM26.8657 11.3639H23.9187V5.05063H20.9717V8.83861H6.23675V5.05063H3.28976V22.7278H12.1307V25.2532H3.28976C2.47934 25.2532 1.78582 25.0061 1.20919 24.512C0.632561 24.0179 0.343756 23.4232 0.342773 22.7278V5.05063C0.342773 4.35617 0.631579 3.76188 1.20919 3.26776C1.7868 2.77364 2.48032 2.52616 3.28976 2.52532H9.44161C9.71175 1.78877 10.2398 1.18395 11.0256 0.710877C11.8115 0.237801 12.671 0.000841772 13.6042 0C14.5866 0 15.4648 0.236959 16.2388 0.710877C17.0129 1.18479 17.5345 1.78961 17.8037 2.52532H23.9187C24.7291 2.52532 25.4231 2.7728 26.0007 3.26776C26.5784 3.76272 26.8667 4.35701 26.8657 5.05063V11.3639ZM13.6042 5.05063C14.0217 5.05063 14.3719 4.92942 14.6548 4.68699C14.9377 4.44456 15.0787 4.14489 15.0777 3.78797C15.0767 3.43106 14.9353 3.13139 14.6534 2.88896C14.3714 2.64653 14.0217 2.52532 13.6042 2.52532C13.1867 2.52532 12.837 2.64653 12.5551 2.88896C12.2732 3.13139 12.1317 3.43106 12.1307 3.78797C12.1298 4.14489 12.2712 4.44498 12.5551 4.68825C12.839 4.93152 13.1887 5.05232 13.6042 5.05063Z" fill="#F8F8F8"/>
</svg>
