<svg width="42" height="36" viewBox="0 0 42 36" fill="none" xmlns="http://www.w3.org/2000/svg">
<g filter="url(#filter0_d_331_1741)">
<path d="M24.207 3.81375C24.207 2.99592 23.355 2.33325 22.3035 2.33325H20.112C19.059 2.33325 18.207 2.99592 18.207 3.81375C18.207 4.48809 17.613 5.06675 16.8045 5.31409C16.6765 5.35453 16.55 5.39575 16.425 5.43775C15.6285 5.70609 14.682 5.62442 14.067 5.14725C13.7099 4.87012 13.226 4.71448 12.7215 4.71448C12.217 4.71448 11.7332 4.87012 11.376 5.14725L9.82503 6.35359C9.46871 6.63135 9.26861 7.00771 9.26861 7.40009C9.26861 7.79246 9.46871 8.16882 9.82503 8.44659C10.44 8.92492 10.545 9.65992 10.197 10.2806C10.1424 10.3783 10.0899 10.4767 10.0395 10.5758C9.72153 11.2046 8.97753 11.6666 8.11053 11.6666C7.05903 11.6666 6.20703 12.3293 6.20703 13.1471V14.8528C6.20703 15.6706 7.05903 16.3333 8.11053 16.3333C8.97753 16.3333 9.72153 16.7953 10.0395 17.4241C10.0915 17.5236 10.144 17.622 10.197 17.7193C10.5435 18.3388 10.4385 19.0749 9.82503 19.5533C9.46871 19.831 9.26861 20.2074 9.26861 20.5998C9.26861 20.9921 9.46871 21.3685 9.82503 21.6463L11.376 22.8526C11.7332 23.1297 12.217 23.2854 12.7215 23.2854C13.226 23.2854 13.7099 23.1297 14.067 22.8526C14.682 22.3743 15.627 22.2926 16.425 22.5621C16.55 22.6049 16.6765 22.6461 16.8045 22.6858C17.613 22.9331 18.207 23.5118 18.207 24.1861C18.207 25.0039 19.059 25.6666 20.1105 25.6666H22.3035C23.355 25.6666 24.207 25.0039 24.207 24.1861C24.207 23.5118 24.801 22.9331 25.6095 22.6846C25.7375 22.6457 25.864 22.6053 25.989 22.5633C26.7855 22.2926 27.732 22.3754 28.3455 22.8526C28.7027 23.1301 29.1869 23.2859 29.6918 23.2859C30.1966 23.2859 30.6808 23.1301 31.038 22.8526L32.589 21.6463C32.9453 21.3685 33.1455 20.9921 33.1455 20.5998C33.1455 20.2074 32.9453 19.831 32.589 19.5533C31.974 19.0749 31.869 18.3399 32.2155 17.7193C32.2705 17.622 32.3235 17.5236 32.3745 17.4241C32.6925 16.7953 33.4365 16.3333 34.3035 16.3333C35.355 16.3333 36.207 15.6706 36.207 14.8528V13.1483C36.207 12.3304 35.355 11.6678 34.3035 11.6678C33.4365 11.6678 32.6925 11.2058 32.373 10.5769C32.3227 10.4778 32.2702 10.3794 32.2155 10.2818C31.8705 9.66225 31.9755 8.92609 32.589 8.44775C32.9453 8.16998 33.1455 7.79363 33.1455 7.40125C33.1455 7.00888 32.9453 6.63252 32.589 6.35475L31.038 5.14842C30.6809 4.87128 30.197 4.71564 29.6925 4.71564C29.188 4.71564 28.7042 4.87128 28.347 5.14842C27.732 5.62675 26.787 5.70842 25.989 5.43892C25.8634 5.39601 25.7369 5.35478 25.6095 5.31525C24.801 5.06675 24.207 4.48692 24.207 3.81375Z" stroke="#F8F8F8" stroke-width="3"/>
<path d="M27.207 13.9999C27.207 15.2376 26.5749 16.4246 25.4497 17.2998C24.3245 18.1749 22.7983 18.6666 21.207 18.6666C19.6157 18.6666 18.0896 18.1749 16.9644 17.2998C15.8392 16.4246 15.207 15.2376 15.207 13.9999C15.207 12.7622 15.8392 11.5753 16.9644 10.7001C18.0896 9.82492 19.6157 9.33325 21.207 9.33325C22.7983 9.33325 24.3245 9.82492 25.4497 10.7001C26.5749 11.5753 27.207 12.7622 27.207 13.9999Z" stroke="#F8F8F8" stroke-width="3"/>
</g>
<defs>
<filter id="filter0_d_331_1741" x="-0.792969" y="0" width="44" height="36" filterUnits="userSpaceOnUse" color-interpolation-filters="sRGB">
<feFlood flood-opacity="0" result="BackgroundImageFix"/>
<feColorMatrix in="SourceAlpha" type="matrix" values="0 0 0 0 0 0 0 0 0 0 0 0 0 0 0 0 0 0 127 0" result="hardAlpha"/>
<feOffset dy="4"/>
<feGaussianBlur stdDeviation="2"/>
<feComposite in2="hardAlpha" operator="out"/>
<feColorMatrix type="matrix" values="0 0 0 0 0 0 0 0 0 0 0 0 0 0 0 0 0 0 0.25 0"/>
<feBlend mode="normal" in2="BackgroundImageFix" result="effect1_dropShadow_331_1741"/>
<feBlend mode="normal" in="SourceGraphic" in2="effect1_dropShadow_331_1741" result="shape"/>
</filter>
</defs>
</svg>
