<svg width="30" height="26" viewBox="0 0 30 26" fill="none" xmlns="http://www.w3.org/2000/svg">
<path d="M18.7624 23.8958L12.5001 18.5295L14.563 16.7618L18.7624 20.3604L27.0877 13.2263L29.1506 14.9941L18.7624 23.8958ZM26.8667 11.3639H23.9197V5.05063H20.9727V8.83861H6.23773V5.05063H3.29074V22.7278H12.1317V25.2532H3.29074C2.48032 25.2532 1.78679 25.0061 1.21017 24.512C0.633538 24.0179 0.344732 23.4232 0.34375 22.7278V5.05063C0.34375 4.35617 0.632555 3.76188 1.21017 3.26776C1.78778 2.77364 2.4813 2.52616 3.29074 2.52532H9.44258C9.71272 1.78877 10.2407 1.18395 11.0266 0.710877C11.8125 0.237801 12.672 0.000841772 13.6052 0C14.5875 0 15.4657 0.236959 16.2398 0.710877C17.0139 1.18479 17.5355 1.78961 17.8047 2.52532H23.9197C24.7301 2.52532 25.4241 2.7728 26.0017 3.26776C26.5793 3.76272 26.8676 4.35701 26.8667 5.05063V11.3639ZM13.6052 5.05063C14.0227 5.05063 14.3729 4.92942 14.6558 4.68699C14.9387 4.44456 15.0797 4.14489 15.0787 3.78797C15.0777 3.43106 14.9363 3.13139 14.6543 2.88896C14.3724 2.64653 14.0227 2.52532 13.6052 2.52532C13.1877 2.52532 12.838 2.64653 12.5561 2.88896C12.2742 3.13139 12.1327 3.43106 12.1317 3.78797C12.1307 4.14489 12.2722 4.44498 12.5561 4.68825C12.84 4.93152 13.1897 5.05232 13.6052 5.05063Z" fill="#F8F8F8"/>
</svg>
