<svg width="39" height="25" viewBox="0 0 39 25" fill="none" xmlns="http://www.w3.org/2000/svg">
<g clip-path="url(#clip0_331_2100)">
<mask id="path-1-outside-1_331_2100" maskUnits="userSpaceOnUse" x="2.77734" y="-0.126465" width="32" height="23" fill="black">
<rect fill="white" x="2.77734" y="-0.126465" width="32" height="23"/>
<path d="M13.8139 21.915H23.8505H13.8139ZM13.8139 21.915V16.0702V21.915ZM13.8139 21.915H4.781C4.51481 21.915 4.25953 21.8411 4.07131 21.7096C3.88309 21.5781 3.77734 21.3997 3.77734 21.2137V16.7716C3.77734 16.5855 3.88309 16.4071 4.07131 16.2756C4.25953 16.1441 4.51481 16.0702 4.781 16.0702H13.8139M23.8505 21.915V7.88737V21.915ZM23.8505 21.915H32.8834C33.1495 21.915 33.4048 21.8411 33.593 21.7096C33.7813 21.5781 33.887 21.3997 33.887 21.2137V1.57492C33.887 1.3889 33.7813 1.2105 33.593 1.07897C33.4048 0.947431 33.1495 0.873535 32.8834 0.873535H24.8541C24.5879 0.873535 24.3326 0.947431 24.1444 1.07897C23.9562 1.2105 23.8505 1.3889 23.8505 1.57492V7.88737M23.8505 7.88737H14.8176C14.5514 7.88737 14.2961 7.96127 14.1079 8.0928C13.9196 8.22434 13.8139 8.40274 13.8139 8.58876V16.0702"/>
</mask>
<path d="M13.8139 21.915H23.8505H13.8139ZM13.8139 21.915V16.0702V21.915ZM13.8139 21.915H4.781C4.51481 21.915 4.25953 21.8411 4.07131 21.7096C3.88309 21.5781 3.77734 21.3997 3.77734 21.2137V16.7716C3.77734 16.5855 3.88309 16.4071 4.07131 16.2756C4.25953 16.1441 4.51481 16.0702 4.781 16.0702H13.8139M23.8505 21.915V7.88737V21.915ZM23.8505 21.915H32.8834C33.1495 21.915 33.4048 21.8411 33.593 21.7096C33.7813 21.5781 33.887 21.3997 33.887 21.2137V1.57492C33.887 1.3889 33.7813 1.2105 33.593 1.07897C33.4048 0.947431 33.1495 0.873535 32.8834 0.873535H24.8541C24.5879 0.873535 24.3326 0.947431 24.1444 1.07897C23.9562 1.2105 23.8505 1.3889 23.8505 1.57492V7.88737M23.8505 7.88737H14.8176C14.5514 7.88737 14.2961 7.96127 14.1079 8.0928C13.9196 8.22434 13.8139 8.40274 13.8139 8.58876V16.0702" fill="#F8F8F8"/>
<path d="M4.781 21.915V22.665V21.915ZM3.77734 16.7716H4.52734H3.77734ZM32.8834 21.915V22.665V21.915ZM33.887 21.2137H34.637H33.887ZM33.887 1.57492H34.637H33.887ZM24.8541 0.873535V1.62354V0.873535ZM14.8176 7.88737V8.63737V7.88737ZM13.8139 21.915V22.665H23.8505V21.915V21.165H13.8139V21.915ZM13.8139 21.915H14.5639V16.0702H13.8139H13.0639V21.915H13.8139ZM13.8139 21.915V21.165H4.781V21.915V22.665H13.8139V21.915ZM4.781 21.915V21.165C4.64326 21.165 4.54397 21.1249 4.50092 21.0949L4.07131 21.7096L3.64169 22.3244C3.97509 22.5574 4.38636 22.665 4.781 22.665V21.915ZM4.07131 21.7096L4.50092 21.0949C4.48227 21.0818 4.48733 21.0801 4.49892 21.0997C4.5116 21.121 4.52734 21.1609 4.52734 21.2137H3.77734H3.02734C3.02734 21.703 3.30581 22.0896 3.64169 22.3244L4.07131 21.7096ZM3.77734 21.2137H4.52734V16.7716H3.77734H3.02734V21.2137H3.77734ZM3.77734 16.7716H4.52734C4.52734 16.8244 4.5116 16.8642 4.49892 16.8856C4.48733 16.9051 4.48227 16.9034 4.50092 16.8904L4.07131 16.2756L3.64169 15.6608C3.30581 15.8956 3.02734 16.2823 3.02734 16.7716H3.77734ZM4.07131 16.2756L4.50092 16.8904C4.54397 16.8603 4.64327 16.8202 4.781 16.8202V16.0702V15.3202C4.38636 15.3202 3.97509 15.4279 3.64169 15.6608L4.07131 16.2756ZM4.781 16.0702V16.8202H13.8139V16.0702V15.3202H4.781V16.0702ZM23.8505 21.915H24.6005V7.88737H23.8505H23.1005V21.915H23.8505ZM23.8505 21.915V22.665H32.8834V21.915V21.165H23.8505V21.915ZM32.8834 21.915V22.665C33.278 22.665 33.6893 22.5574 34.0227 22.3244L33.593 21.7096L33.1634 21.0949C33.1204 21.1249 33.0211 21.165 32.8834 21.165V21.915ZM33.593 21.7096L34.0227 22.3244C34.3585 22.0896 34.637 21.703 34.637 21.2137H33.887H33.137C33.137 21.1609 33.1528 21.121 33.1654 21.0997C33.177 21.0801 33.1821 21.0818 33.1634 21.0949L33.593 21.7096ZM33.887 21.2137H34.637V1.57492H33.887H33.137V21.2137H33.887ZM33.887 1.57492H34.637C34.637 1.08561 34.3585 0.698929 34.0227 0.464204L33.593 1.07897L33.1634 1.69373C33.1821 1.70676 33.177 1.70848 33.1654 1.68893C33.1528 1.66754 33.137 1.62773 33.137 1.57492H33.887ZM33.593 1.07897L34.0227 0.464204C33.6893 0.231218 33.278 0.123535 32.8834 0.123535V0.873535V1.62354C33.0211 1.62354 33.1204 1.66364 33.1634 1.69373L33.593 1.07897ZM32.8834 0.873535V0.123535H24.8541V0.873535V1.62354H32.8834V0.873535ZM24.8541 0.873535V0.123535C24.4595 0.123535 24.0482 0.231218 23.7148 0.464204L24.1444 1.07897L24.574 1.69373C24.6171 1.66364 24.7164 1.62354 24.8541 1.62354V0.873535ZM24.1444 1.07897L23.7148 0.464204C23.3789 0.698931 23.1005 1.08562 23.1005 1.57492H23.8505H24.6005C24.6005 1.62772 24.5847 1.66754 24.572 1.68893C24.5604 1.70848 24.5554 1.70676 24.574 1.69373L24.1444 1.07897ZM23.8505 1.57492H23.1005V7.88737H23.8505H24.6005V1.57492H23.8505ZM23.8505 7.88737V7.13737H14.8176V7.88737V8.63737H23.8505V7.88737ZM14.8176 7.88737V7.13737C14.4229 7.13737 14.0116 7.24505 13.6782 7.47804L14.1079 8.0928L14.5375 8.70756C14.5805 8.67748 14.6798 8.63737 14.8176 8.63737V7.88737ZM14.1079 8.0928L13.6782 7.47804C13.3424 7.71277 13.0639 8.09946 13.0639 8.58876H13.8139H14.5639C14.5639 8.64156 14.5482 8.68137 14.5355 8.70276C14.5239 8.72231 14.5188 8.7206 14.5375 8.70756L14.1079 8.0928ZM13.8139 8.58876H13.0639V16.0702H13.8139H14.5639V8.58876H13.8139Z" fill="#F8F8F8" mask="url(#path-1-outside-1_331_2100)"/>
<path d="M13.9609 21.6383V8.07202H23.2595V21.6383H13.9609Z" fill="#549274" stroke="#F8F8F8"/>
</g>
<defs>
<clipPath id="clip0_331_2100">
<rect width="38.0799" height="23.8101" fill="white" transform="translate(0.234375 0.873535)"/>
</clipPath>
</defs>
</svg>
