<svg width="52" height="37" viewBox="0 0 52 37" fill="none" xmlns="http://www.w3.org/2000/svg">
<path d="M21.5949 2.34708C22.568 1.38615 24.076 0.5 26 0.5C27.924 0.5 29.432 1.38615 30.4051 2.34708C31.4043 3.33015 32.0766 4.59846 32.2994 5.85569C32.5223 7.10185 32.3366 8.51415 31.3077 9.66339C30.212 10.8846 28.3734 11.5769 26 11.5769C23.6229 11.5769 21.788 10.8846 20.6923 9.66339C19.6671 8.51138 19.4777 7.09908 19.7006 5.85569C19.9234 4.59846 20.5957 3.33015 21.5949 2.34708ZM3.82571 18.9154C4.13114 17.6343 5.03182 16.4742 6.36979 15.6387C7.70776 14.8032 9.39758 14.3456 11.1429 14.3462H40.8571C42.6999 14.3463 44.4768 14.857 45.8427 15.7792C47.2087 16.7014 48.0661 17.9692 48.2486 19.3363C46.5335 20.5958 44.7659 21.8148 42.9483 22.9917C41.3549 24.0135 39.6871 25.0077 38.2051 25.7415C37.4598 26.1108 36.8123 26.3886 36.2626 26.5751C35.9575 26.6942 35.627 26.7729 35.2857 26.8077C34.3274 26.8077 33.6811 26.348 32.2363 25.1766L32.2251 25.1683C30.9771 24.1603 29.12 22.6538 26 22.6538C22.88 22.6538 21.0229 24.1603 19.7749 25.1683L19.7637 25.1766C18.3151 26.348 17.6726 26.8077 16.7143 26.8077C16.6346 26.8011 16.5562 26.7881 16.4803 26.7689C16.26 26.721 16.0461 26.658 15.8414 26.5806C15.1742 26.338 14.5323 26.0585 13.9211 25.7443C12.4503 25.0077 10.764 24.008 9.152 22.9834C7.30362 21.806 5.50264 20.588 3.75143 19.3308C3.77124 19.1905 3.796 19.052 3.82571 18.9154ZM3.71429 23.0969C4.61686 23.7145 5.65686 24.404 6.74514 25.0963C8.40171 26.1486 10.2069 27.2258 11.856 28.0483C12.6769 28.4582 13.4977 28.8237 14.2629 29.0923C14.9871 29.3443 15.8526 29.5797 16.7143 29.5797C19.4183 29.5797 21.1417 28.1674 22.2671 27.2425L22.4974 27.0569C23.816 25.9852 24.6703 25.4231 26 25.4231C27.3297 25.4231 28.184 25.9852 29.5026 27.0542L29.7329 27.2397C30.8583 28.1646 32.5817 29.5769 35.2857 29.5769C36.1623 29.5769 37.0426 29.3526 37.8003 29.0951C38.6544 28.7933 39.4764 28.4434 40.2591 28.0483C41.9306 27.2231 43.732 26.1403 45.3737 25.0852C46.4211 24.4151 47.4166 23.7422 48.2857 23.1412V33.7308H50.1429C50.6354 33.7308 51.1078 33.8766 51.4561 34.1363C51.8043 34.396 52 34.7482 52 35.1154C52 35.4826 51.8043 35.8348 51.4561 36.0945C51.1078 36.3541 50.6354 36.5 50.1429 36.5H1.85714C1.3646 36.5 0.892226 36.3541 0.543944 36.0945C0.195663 35.8348 0 35.4826 0 35.1154C0 34.7482 0.195663 34.396 0.543944 34.1363C0.892226 33.8766 1.3646 33.7308 1.85714 33.7308H3.71429V23.0969Z" fill="#443E31"/>
</svg>
