<svg width="38" height="28" viewBox="0 0 38 28" fill="none" xmlns="http://www.w3.org/2000/svg">
<g clip-path="url(#clip0_331_1730)">
<mask id="path-1-outside-1_331_1730" maskUnits="userSpaceOnUse" x="2.53516" y="-1" width="32" height="27" fill="black">
<rect fill="white" x="2.53516" y="-1" width="32" height="27"/>
<path d="M13.5507 24.7442H23.5662ZM13.5507 24.7442V17.8708ZM13.5507 24.7442H4.53671C4.27108 24.7442 4.01633 24.6573 3.8285 24.5026C3.64068 24.3479 3.53516 24.1381 3.53516 23.9194V18.6956C3.53516 18.4769 3.64068 18.2671 3.8285 18.1124C4.01633 17.9577 4.27108 17.8708 4.53671 17.8708H13.5507M23.5662 24.7442V8.24806ZM23.5662 24.7442H32.5801C32.8457 24.7442 33.1005 24.6573 33.2883 24.5026C33.4761 24.3479 33.5817 24.1381 33.5817 23.9194V0.824806C33.5817 0.606054 33.4761 0.396261 33.2883 0.24158C33.1005 0.086899 32.8457 0 32.5801 0H24.5677C24.3021 0 24.0473 0.086899 23.8595 0.24158C23.6717 0.396261 23.5662 0.606054 23.5662 0.824806V8.24806M23.5662 8.24806H14.5522C14.2866 8.24806 14.0318 8.33496 13.844 8.48964C13.6562 8.64432 13.5507 8.85412 13.5507 9.07287V17.8708"/>
</mask>
<path d="M13.5507 24.7442H23.5662ZM13.5507 24.7442V17.8708ZM13.5507 24.7442H4.53671C4.27108 24.7442 4.01633 24.6573 3.8285 24.5026C3.64068 24.3479 3.53516 24.1381 3.53516 23.9194V18.6956C3.53516 18.4769 3.64068 18.2671 3.8285 18.1124C4.01633 17.9577 4.27108 17.8708 4.53671 17.8708H13.5507M23.5662 24.7442V8.24806ZM23.5662 24.7442H32.5801C32.8457 24.7442 33.1005 24.6573 33.2883 24.5026C33.4761 24.3479 33.5817 24.1381 33.5817 23.9194V0.824806C33.5817 0.606054 33.4761 0.396261 33.2883 0.24158C33.1005 0.086899 32.8457 0 32.5801 0H24.5677C24.3021 0 24.0473 0.086899 23.8595 0.24158C23.6717 0.396261 23.5662 0.606054 23.5662 0.824806V8.24806M23.5662 8.24806H14.5522C14.2866 8.24806 14.0318 8.33496 13.844 8.48964C13.6562 8.64432 13.5507 8.85412 13.5507 9.07287V17.8708" fill="#F8F8F8"/>
<path d="M4.53671 24.7442V25.4942V24.7442ZM3.53516 18.6956L4.28516 18.6956L3.53516 18.6956ZM32.5801 24.7442L32.5801 25.4942L32.5801 24.7442ZM33.5817 23.9194H34.3317H33.5817ZM33.5817 0.824806L34.3317 0.824806L33.5817 0.824806ZM24.5677 0V0.75V0ZM14.5522 8.24806V8.99806V8.24806ZM13.5507 24.7442V25.4942H23.5662V24.7442V23.9942H13.5507V24.7442ZM13.5507 24.7442H14.3007V17.8708H13.5507H12.8007V24.7442H13.5507ZM13.5507 24.7442V23.9942H4.53671V24.7442V25.4942H13.5507V24.7442ZM4.53671 24.7442L4.53671 23.9942C4.42796 23.9942 4.34622 23.9574 4.30528 23.9237L3.8285 24.5026L3.35172 25.0816C3.68645 25.3572 4.1142 25.4942 4.53671 25.4942L4.53671 24.7442ZM3.8285 24.5026L4.30528 23.9237C4.29594 23.916 4.28992 23.9095 4.28631 23.905C4.2827 23.9006 4.28145 23.8981 4.28142 23.898C4.28141 23.898 4.28242 23.9 4.28342 23.9041C4.28443 23.9083 4.28516 23.9135 4.28516 23.9194H3.53516H2.78516C2.78516 24.3892 3.01288 24.8025 3.35172 25.0816L3.8285 24.5026ZM3.53516 23.9194H4.28516V18.6956H3.53516H2.78516V23.9194H3.53516ZM3.53516 18.6956L4.28516 18.6956C4.28516 18.7015 4.28443 18.7067 4.28342 18.7109C4.28242 18.7149 4.28141 18.717 4.28142 18.717C4.28145 18.7169 4.2827 18.7144 4.28631 18.71C4.28992 18.7055 4.29594 18.699 4.30528 18.6913L3.8285 18.1124L3.35172 17.5334C3.01288 17.8125 2.78516 18.2257 2.78516 18.6956L3.53516 18.6956ZM3.8285 18.1124L4.30528 18.6913C4.34622 18.6576 4.42796 18.6208 4.53671 18.6208V17.8708V17.1208C4.11419 17.1208 3.68644 17.2578 3.35172 17.5334L3.8285 18.1124ZM4.53671 17.8708V18.6208H13.5507V17.8708V17.1208H4.53671V17.8708ZM23.5662 24.7442H24.3162V8.24806H23.5662H22.8162V24.7442H23.5662ZM23.5662 24.7442V25.4942H32.5801V24.7442V23.9942H23.5662V24.7442ZM32.5801 24.7442L32.5801 25.4942C33.0026 25.4942 33.4304 25.3572 33.7651 25.0816L33.2883 24.5026L32.8115 23.9237C32.7706 23.9574 32.6889 23.9942 32.5801 23.9942L32.5801 24.7442ZM33.2883 24.5026L33.7651 25.0816C34.1039 24.8025 34.3317 24.3892 34.3317 23.9194L33.5817 23.9194H32.8317C32.8317 23.9135 32.8324 23.9083 32.8334 23.9041C32.8344 23.9 32.8354 23.898 32.8354 23.898C32.8354 23.8981 32.8341 23.9006 32.8305 23.905C32.8269 23.9095 32.8209 23.916 32.8115 23.9237L33.2883 24.5026ZM33.5817 23.9194H34.3317V0.824806H33.5817H32.8317V23.9194H33.5817ZM33.5817 0.824806L34.3317 0.824806C34.3317 0.354939 34.1039 -0.0583218 33.7651 -0.337367L33.2883 0.24158L32.8115 0.820528C32.8209 0.828223 32.8269 0.834706 32.8305 0.839167C32.8341 0.843622 32.8354 0.846115 32.8354 0.846172C32.8354 0.846192 32.8344 0.844148 32.8334 0.840052C32.8324 0.835892 32.8317 0.83065 32.8317 0.824806L33.5817 0.824806ZM33.2883 0.24158L33.7651 -0.337367C33.4304 -0.613019 33.0026 -0.75 32.5801 -0.75V0V0.75C32.6889 0.75 32.7706 0.786817 32.8115 0.820528L33.2883 0.24158ZM32.5801 0V-0.75H24.5677V0V0.75H32.5801V0ZM24.5677 0V-0.75C24.1452 -0.75 23.7174 -0.613019 23.3827 -0.337367L23.8595 0.24158L24.3363 0.820528C24.3772 0.786817 24.459 0.75 24.5677 0.75V0ZM23.8595 0.24158L23.3827 -0.337367C23.0439 -0.0583193 22.8162 0.354943 22.8162 0.824806H23.5662H24.3162C24.3162 0.830649 24.3154 0.83589 24.3144 0.84005C24.3134 0.844146 24.3124 0.846189 24.3124 0.846169C24.3125 0.846113 24.3137 0.84362 24.3173 0.839166C24.3209 0.834705 24.3269 0.828223 24.3363 0.820528L23.8595 0.24158ZM23.5662 0.824806H22.8162V8.24806H23.5662H24.3162V0.824806H23.5662ZM23.5662 8.24806V7.49806H14.5522V8.24806V8.99806H23.5662V8.24806ZM14.5522 8.24806L14.5522 7.49806C14.1297 7.49806 13.7019 7.63504 13.3672 7.91069L13.844 8.48964L14.3208 9.06859C14.3617 9.03488 14.4435 8.99806 14.5522 8.99806L14.5522 8.24806ZM13.844 8.48964L13.3672 7.91069C13.0284 8.18974 12.8007 8.60301 12.8007 9.07287H13.5507H14.3007C14.3007 9.07871 14.2999 9.08395 14.2989 9.08811C14.2979 9.09221 14.2969 9.09425 14.2969 9.09423C14.2969 9.09417 14.2982 9.09168 14.3018 9.08723C14.3054 9.08277 14.3114 9.07628 14.3208 9.06859L13.844 8.48964ZM13.5507 9.07287H12.8007V17.8708H13.5507H14.3007V9.07287H13.5507Z" fill="#F8F8F8" mask="url(#path-1-outside-1_331_1730)"/>
<path d="M13.6973 24.4186V8.46509H22.9763V24.4186H13.6973Z" fill="#549274" stroke="#F8F8F8"/>
</g>
<defs>
<clipPath id="clip0_331_1730">
<rect width="38" height="28" fill="white"/>
</clipPath>
</defs>
</svg>
