<svg width="52" height="36" viewBox="0 0 52 36" fill="none" xmlns="http://www.w3.org/2000/svg">
<path d="M21.5949 1.84708C22.568 0.886154 24.076 0 26 0C27.924 0 29.432 0.886154 30.4051 1.84708C31.4043 2.83015 32.0766 4.09846 32.2994 5.35569C32.5223 6.60185 32.3366 8.01415 31.3077 9.16339C30.212 10.3846 28.3734 11.0769 26 11.0769C23.6229 11.0769 21.788 10.3846 20.6923 9.16339C19.6671 8.01138 19.4777 6.59908 19.7006 5.35569C19.9234 4.09846 20.5957 2.83015 21.5949 1.84708ZM3.82571 18.4154C4.13114 17.1343 5.03182 15.9742 6.36979 15.1387C7.70776 14.3032 9.39758 13.8456 11.1429 13.8462H40.8571C42.6999 13.8463 44.4768 14.357 45.8427 15.2792C47.2087 16.2014 48.0661 17.4692 48.2486 18.8363C46.5335 20.0958 44.7659 21.3148 42.9483 22.4917C41.3549 23.5135 39.6871 24.5077 38.2051 25.2415C37.4598 25.6108 36.8123 25.8886 36.2626 26.0751C35.9575 26.1942 35.627 26.2729 35.2857 26.3077C34.3274 26.3077 33.6811 25.848 32.2363 24.6766L32.2251 24.6683C30.9771 23.6603 29.12 22.1538 26 22.1538C22.88 22.1538 21.0229 23.6603 19.7749 24.6683L19.7637 24.6766C18.3151 25.848 17.6726 26.3077 16.7143 26.3077C16.6346 26.3011 16.5562 26.2881 16.4803 26.2689C16.26 26.221 16.0461 26.158 15.8414 26.0806C15.1742 25.838 14.5323 25.5585 13.9211 25.2443C12.4503 24.5077 10.764 23.508 9.152 22.4834C7.30362 21.306 5.50264 20.088 3.75143 18.8308C3.77124 18.6905 3.796 18.552 3.82571 18.4154ZM3.71429 22.5969C4.61686 23.2145 5.65686 23.904 6.74514 24.5963C8.40171 25.6486 10.2069 26.7258 11.856 27.5483C12.6769 27.9582 13.4977 28.3237 14.2629 28.5923C14.9871 28.8443 15.8526 29.0797 16.7143 29.0797C19.4183 29.0797 21.1417 27.6674 22.2671 26.7425L22.4974 26.5569C23.816 25.4852 24.6703 24.9231 26 24.9231C27.3297 24.9231 28.184 25.4852 29.5026 26.5542L29.7329 26.7397C30.8583 27.6646 32.5817 29.0769 35.2857 29.0769C36.1623 29.0769 37.0426 28.8526 37.8003 28.5951C38.6544 28.2933 39.4764 27.9434 40.2591 27.5483C41.9306 26.7231 43.732 25.6403 45.3737 24.5852C46.4211 23.9151 47.4166 23.2422 48.2857 22.6412V33.2308H50.1429C50.6354 33.2308 51.1078 33.3766 51.4561 33.6363C51.8043 33.896 52 34.2482 52 34.6154C52 34.9826 51.8043 35.3348 51.4561 35.5945C51.1078 35.8541 50.6354 36 50.1429 36H1.85714C1.3646 36 0.892226 35.8541 0.543944 35.5945C0.195663 35.3348 0 34.9826 0 34.6154C0 34.2482 0.195663 33.896 0.543944 33.6363C0.892226 33.3766 1.3646 33.2308 1.85714 33.2308H3.71429V22.5969Z" fill="#443E31"/>
</svg>
