<svg width="40" height="30" viewBox="0 0 40 30" fill="none" xmlns="http://www.w3.org/2000/svg">
<path d="M11.6462 26.8189C10.7312 26.8189 9.94814 26.5804 9.29708 26.1033C8.64602 25.6263 8.31994 25.0521 8.31883 24.3808C8.31772 23.7095 8.6438 23.1358 9.29708 22.6595C9.95036 22.1833 10.7334 21.9443 11.6462 21.9427C12.559 21.9411 13.3426 22.18 13.997 22.6595C14.6514 23.139 14.9769 23.7128 14.9736 24.3808C14.9703 25.0488 14.6447 25.623 13.997 26.1033C13.3493 26.5836 12.5657 26.8222 11.6462 26.8189ZM28.2831 26.8189C27.3681 26.8189 26.585 26.5804 25.934 26.1033C25.2829 25.6263 24.9568 25.0521 24.9557 24.3808C24.9546 23.7095 25.2807 23.1358 25.934 22.6595C26.5873 22.1833 27.3703 21.9443 28.2831 21.9427C29.1959 21.9411 29.9795 22.18 30.6339 22.6595C31.2883 23.139 31.6138 23.7128 31.6105 24.3808C31.6072 25.0488 31.2816 25.623 30.6339 26.1033C29.9862 26.5836 29.2026 26.8222 28.2831 26.8189ZM10.2321 7.31417L14.2249 13.4094H25.8708L30.4459 7.31417H10.2321ZM8.65157 4.87608H33.191C33.8288 4.87608 34.314 5.08454 34.6467 5.50145C34.9795 5.91836 34.9933 6.33975 34.6883 6.7656L28.7822 14.5675C28.4772 14.9738 28.0685 15.2888 27.5561 15.5123C27.0437 15.7357 26.4819 15.8475 25.8708 15.8475H13.4763L11.6462 18.2856H29.9468C30.4182 18.2856 30.8136 18.4026 31.133 18.6367C31.4524 18.8707 31.6116 19.16 31.6105 19.5046C31.6094 19.8492 31.4497 20.1389 31.1314 20.3738C30.813 20.6087 30.4182 20.7253 29.9468 20.7237H11.6462C10.3984 20.7237 9.45569 20.3226 8.81794 19.5205C8.18019 18.7183 8.15246 17.9207 8.73475 17.1275L10.9807 14.1408L4.99145 4.87608H3.32776C2.85638 4.87608 2.46153 4.75905 2.14321 4.52499C1.82489 4.29094 1.66518 4.00162 1.66407 3.65703C1.66296 3.31245 1.82267 3.02313 2.14321 2.78907C2.46375 2.55502 2.8586 2.43799 3.32776 2.43799H6.03126C6.33627 2.43799 6.62741 2.49894 6.90469 2.62085C7.18197 2.74275 7.38994 2.91545 7.52858 3.13894L8.65157 4.87608Z" fill="#F8F8F8"/>
</svg>
