<svg width="36" height="32" viewBox="0 0 36 32" fill="none" xmlns="http://www.w3.org/2000/svg">
<path d="M14.9635 17.7547H20.0912V16.4921H14.9635V17.7547ZM14.9635 13.9668H25.2219V12.7041H14.9635V13.9668ZM14.9635 10.1788H25.2219V8.91613H14.9635V10.1788ZM12.1874 22.174C11.5086 22.174 10.9423 21.9796 10.4885 21.5907C10.0346 21.2018 9.80721 20.7165 9.80623 20.1349V6.53602C9.80623 5.9552 10.0336 5.46992 10.4885 5.08018C10.9433 4.69044 11.5096 4.49599 12.1874 4.49683H28.0555C28.7333 4.49683 29.2996 4.69128 29.7544 5.08018C30.2092 5.46908 30.4361 5.95436 30.4352 6.53602V20.1349C30.4352 20.7157 30.2082 21.2005 29.7544 21.5894C29.3006 21.9783 28.7338 22.1732 28.054 22.174H12.1874ZM7.76691 25.962C7.08812 25.962 6.52181 25.7676 6.06797 25.3787C5.61413 24.9898 5.38672 24.5045 5.38574 23.9228V9.06134H6.85924V23.9228C6.85924 24.1164 6.95354 24.2945 7.14215 24.4569C7.33076 24.6194 7.53852 24.7002 7.76544 24.6994H25.1085V25.962H7.76691Z" fill="#F8F8F8"/>
</svg>
