<svg width="37" height="28" viewBox="0 0 37 28" fill="none" xmlns="http://www.w3.org/2000/svg">
<path d="M21.207 3.81375C21.207 2.99592 20.355 2.33325 19.3035 2.33325H17.112C16.059 2.33325 15.207 2.99592 15.207 3.81375C15.207 4.48809 14.613 5.06675 13.8045 5.31409C13.6765 5.35453 13.55 5.39575 13.425 5.43775C12.6285 5.70609 11.682 5.62442 11.067 5.14725C10.7099 4.87012 10.226 4.71448 9.72153 4.71448C9.21705 4.71448 8.73316 4.87012 8.37603 5.14725L6.82503 6.35359C6.46871 6.63135 6.26861 7.00771 6.26861 7.40009C6.26861 7.79246 6.46871 8.16882 6.82503 8.44659C7.44003 8.92492 7.54503 9.65992 7.19703 10.2806C7.14237 10.3783 7.08986 10.4767 7.03953 10.5758C6.72153 11.2046 5.97753 11.6666 5.11053 11.6666C4.05903 11.6666 3.20703 12.3293 3.20703 13.1471V14.8528C3.20703 15.6706 4.05903 16.3333 5.11053 16.3333C5.97753 16.3333 6.72153 16.7953 7.03953 17.4241C7.09153 17.5236 7.14403 17.622 7.19703 17.7193C7.54353 18.3388 7.43853 19.0749 6.82503 19.5533C6.46871 19.831 6.26861 20.2074 6.26861 20.5998C6.26861 20.9921 6.46871 21.3685 6.82503 21.6463L8.37603 22.8526C8.73316 23.1297 9.21705 23.2854 9.72153 23.2854C10.226 23.2854 10.7099 23.1297 11.067 22.8526C11.682 22.3743 12.627 22.2926 13.425 22.5621C13.55 22.6049 13.6765 22.6461 13.8045 22.6858C14.613 22.9331 15.207 23.5118 15.207 24.1861C15.207 25.0039 16.059 25.6666 17.1105 25.6666H19.3035C20.355 25.6666 21.207 25.0039 21.207 24.1861C21.207 23.5118 21.801 22.9331 22.6095 22.6846C22.7375 22.6457 22.864 22.6053 22.989 22.5633C23.7855 22.2926 24.732 22.3754 25.3455 22.8526C25.7027 23.1301 26.1869 23.2859 26.6918 23.2859C27.1966 23.2859 27.6808 23.1301 28.038 22.8526L29.589 21.6463C29.9453 21.3685 30.1455 20.9921 30.1455 20.5998C30.1455 20.2074 29.9453 19.831 29.589 19.5533C28.974 19.0749 28.869 18.3399 29.2155 17.7193C29.2705 17.622 29.3235 17.5236 29.3745 17.4241C29.6925 16.7953 30.4365 16.3333 31.3035 16.3333C32.355 16.3333 33.207 15.6706 33.207 14.8528V13.1483C33.207 12.3304 32.355 11.6678 31.3035 11.6678C30.4365 11.6678 29.6925 11.2058 29.373 10.5769C29.3227 10.4778 29.2702 10.3794 29.2155 10.2818C28.8705 9.66225 28.9755 8.92609 29.589 8.44775C29.9453 8.16998 30.1455 7.79363 30.1455 7.40125C30.1455 7.00888 29.9453 6.63252 29.589 6.35475L28.038 5.14842C27.6809 4.87128 27.197 4.71564 26.6925 4.71564C26.188 4.71564 25.7042 4.87128 25.347 5.14842C24.732 5.62675 23.787 5.70842 22.989 5.43892C22.8634 5.39601 22.7369 5.35478 22.6095 5.31525C21.801 5.06675 21.207 4.48692 21.207 3.81375Z" stroke="#F8F8F8" stroke-width="3"/>
<path d="M24.207 13.9999C24.207 15.2376 23.5749 16.4246 22.4497 17.2998C21.3245 18.1749 19.7983 18.6666 18.207 18.6666C16.6157 18.6666 15.0896 18.1749 13.9644 17.2998C12.8392 16.4246 12.207 15.2376 12.207 13.9999C12.207 12.7622 12.8392 11.5753 13.9644 10.7001C15.0896 9.82492 16.6157 9.33325 18.207 9.33325C19.7983 9.33325 21.3245 9.82492 22.4497 10.7001C23.5749 11.5753 24.207 12.7622 24.207 13.9999Z" stroke="#F8F8F8" stroke-width="3"/>
</svg>
