<svg width="54" height="38" viewBox="0 0 54 38" fill="none" xmlns="http://www.w3.org/2000/svg">
<path d="M53.5 20.7273C53.5 21.6435 53.0705 22.5222 52.3059 23.17C51.5413 23.8179 50.5043 24.1818 49.4231 24.1818H4.57692C3.49566 24.1818 2.45867 23.8179 1.6941 23.17C0.929532 22.5222 0.5 21.6435 0.5 20.7273C0.5 19.8111 0.929532 18.9324 1.6941 18.2845C2.45867 17.6367 3.49566 17.2727 4.57692 17.2727H49.4231C50.5043 17.2727 51.5413 17.6367 52.3059 18.2845C53.0705 18.9324 53.5 19.8111 53.5 20.7273ZM10.6923 27.6364H4.57692C4.57692 30.385 5.86552 33.021 8.15923 34.9646C10.4529 36.9081 13.5639 38 16.8077 38H37.1923C40.4361 38 43.5471 36.9081 45.8408 34.9646C48.1345 33.021 49.4231 30.385 49.4231 27.6364H10.6923ZM8.65385 13.8182H4.57692V6.90909C4.57692 5.07669 5.43599 3.31933 6.96513 2.02363C8.49427 0.72792 10.5682 0 12.7308 0H41.2692C43.4318 0 45.5057 0.72792 47.0349 2.02363C48.564 3.31933 49.4231 5.07669 49.4231 6.90909V13.8182H8.65385ZM41.2692 8.63636C41.2692 9.09447 41.484 9.5338 41.8663 9.85773C42.2486 10.1817 42.7671 10.3636 43.3077 10.3636C43.8483 10.3636 44.3668 10.1817 44.7491 9.85773C45.1314 9.5338 45.3462 9.09447 45.3462 8.63636C45.3462 8.17826 45.1314 7.73892 44.7491 7.415C44.3668 7.09107 43.8483 6.90909 43.3077 6.90909C42.7671 6.90909 42.2486 7.09107 41.8663 7.415C41.484 7.73892 41.2692 8.17826 41.2692 8.63636ZM33.1154 5.18182C33.1154 5.63992 33.3301 6.07926 33.7124 6.40318C34.0947 6.72711 34.6132 6.90909 35.1538 6.90909C35.6945 6.90909 36.213 6.72711 36.5953 6.40318C36.9775 6.07926 37.1923 5.63992 37.1923 5.18182C37.1923 4.72372 36.9775 4.28438 36.5953 3.96045C36.213 3.63653 35.6945 3.45455 35.1538 3.45455C34.6132 3.45455 34.0947 3.63653 33.7124 3.96045C33.3301 4.28438 33.1154 4.72372 33.1154 5.18182ZM24.9615 8.63636C24.9615 9.09447 25.1763 9.5338 25.5586 9.85773C25.9409 10.1817 26.4594 10.3636 27 10.3636C27.5406 10.3636 28.0591 10.1817 28.4414 9.85773C28.8237 9.5338 29.0385 9.09447 29.0385 8.63636C29.0385 8.17826 28.8237 7.73892 28.4414 7.415C28.0591 7.09107 27.5406 6.90909 27 6.90909C26.4594 6.90909 25.9409 7.09107 25.5586 7.415C25.1763 7.73892 24.9615 8.17826 24.9615 8.63636ZM16.8077 5.18182C16.8077 5.63992 17.0225 6.07926 17.4047 6.40318C17.787 6.72711 18.3055 6.90909 18.8462 6.90909C19.3868 6.90909 19.9053 6.72711 20.2876 6.40318C20.6698 6.07926 20.8846 5.63992 20.8846 5.18182C20.8846 4.72372 20.6698 4.28438 20.2876 3.96045C19.9053 3.63653 19.3868 3.45455 18.8462 3.45455C18.3055 3.45455 17.787 3.63653 17.4047 3.96045C17.0225 4.28438 16.8077 4.72372 16.8077 5.18182ZM8.65385 8.63636C8.65385 9.09447 8.86861 9.5338 9.2509 9.85773C9.63318 10.1817 10.1517 10.3636 10.6923 10.3636C11.2329 10.3636 11.7514 10.1817 12.1337 9.85773C12.516 9.5338 12.7308 9.09447 12.7308 8.63636C12.7308 8.17826 12.516 7.73892 12.1337 7.415C11.7514 7.09107 11.2329 6.90909 10.6923 6.90909C10.1517 6.90909 9.63318 7.09107 9.2509 7.415C8.86861 7.73892 8.65385 8.17826 8.65385 8.63636Z" fill="#3F3B2B"/>
</svg>
