<svg width="55" height="22" viewBox="0 0 55 22" fill="none" xmlns="http://www.w3.org/2000/svg">
<path d="M27.5 0.5C33.3763 0.5 40.1943 1.68181 45.5312 3.58887C48.2014 4.54301 50.4728 5.66907 52.0664 6.89844C53.6735 8.1382 54.4999 9.40946 54.5 10.6465C54.5 11.8836 53.6736 13.1556 52.0664 14.3955C50.4728 15.6248 48.2013 16.75 45.5312 17.7041C40.1943 19.6112 33.3763 20.7939 27.5 20.7939C21.6237 20.7939 14.8057 19.6112 9.46875 17.7041C6.79868 16.75 4.52716 15.6248 2.93359 14.3955C1.32638 13.1556 0.5 11.8836 0.5 10.6465C0.500144 9.40946 1.32655 8.1382 2.93359 6.89844C4.52718 5.66907 6.7986 4.54301 9.46875 3.58887C14.8057 1.68181 21.6237 0.5 27.5 0.5Z" fill="white" stroke="#758074"/>
<ellipse cx="27.5" cy="9.93712" rx="10.3125" ry="8.51745" fill="black" stroke="black"/>
</svg>
