<svg width="34" height="25" viewBox="0 0 34 25" fill="none" xmlns="http://www.w3.org/2000/svg">
<path d="M9.98215 24.3809C9.06712 24.3809 8.28407 24.1424 7.63302 23.6653C6.98196 23.1883 6.65588 22.6141 6.65477 21.9428C6.65366 21.2715 6.97974 20.6978 7.63302 20.2215C8.28629 19.7453 9.06934 19.5064 9.98215 19.5047C10.895 19.5031 11.6786 19.742 12.3329 20.2215C12.9873 20.701 13.3129 21.2748 13.3095 21.9428C13.3062 22.6109 12.9807 23.185 12.3329 23.6653C11.6852 24.1456 10.9016 24.3842 9.98215 24.3809ZM26.6191 24.3809C25.704 24.3809 24.921 24.1424 24.2699 23.6653C23.6189 23.1883 23.2928 22.6141 23.2917 21.9428C23.2906 21.2715 23.6166 20.6978 24.2699 20.2215C24.9232 19.7453 25.7062 19.5064 26.6191 19.5047C27.5319 19.5031 28.3155 19.742 28.9698 20.2215C29.6242 20.701 29.9498 21.2748 29.9464 21.9428C29.9431 22.6109 29.6176 23.185 28.9698 23.6653C28.3221 24.1456 27.5385 24.3842 26.6191 24.3809ZM8.56801 4.87618L12.5609 10.9714H24.2067L28.7818 4.87618H8.56801ZM6.9875 2.43809H31.5269C32.1647 2.43809 32.6499 2.64655 32.9827 3.06346C33.3154 3.48038 33.3293 3.90176 33.0243 4.32761L27.1182 12.1295C26.8132 12.5359 26.4044 12.8508 25.892 13.0743C25.3796 13.2978 24.8178 13.4095 24.2067 13.4095H11.8122L9.98215 15.8476H28.2827C28.7541 15.8476 29.1495 15.9646 29.469 16.1987C29.7884 16.4327 29.9475 16.7221 29.9464 17.0666C29.9453 17.4112 29.7856 17.701 29.4673 17.9358C29.149 18.1707 28.7541 18.2873 28.2827 18.2857H9.98215C8.73438 18.2857 7.79162 17.8846 7.15387 17.0825C6.51613 16.2804 6.4884 15.4827 7.07069 14.6895L9.31667 11.7028L3.32739 2.43809H1.6637C1.19232 2.43809 0.797468 2.32106 0.479149 2.08701C0.160829 1.85295 0.00111486 1.56363 5.73686e-06 1.21905C-0.00110339 0.874462 0.158611 0.585142 0.479149 0.351085C0.799686 0.117029 1.19454 0 1.6637 0H4.36719C4.6722 0 4.96335 0.0609524 5.24063 0.182857C5.51791 0.304762 5.72587 0.47746 5.86451 0.700951L6.9875 2.43809Z" fill="#F8F8F8"/>
</svg>
