<svg width="46" height="37" viewBox="0 0 46 37" fill="none" xmlns="http://www.w3.org/2000/svg">
<g filter="url(#filter0_d_762_353)">
<path d="M26.2012 3.95012C26.2012 3.10308 25.2545 2.41675 24.0862 2.41675H21.6512C20.4812 2.41675 19.5345 3.10308 19.5345 3.95012C19.5345 4.64854 18.8745 5.24787 17.9762 5.50404C17.8339 5.54593 17.6934 5.58862 17.5545 5.63212C16.6695 5.91004 15.6178 5.82546 14.9345 5.33125C14.5377 5.04422 14 4.88302 13.4395 4.88302C12.879 4.88302 12.3413 5.04422 11.9445 5.33125L10.2212 6.58066C9.82526 6.86835 9.60292 7.25815 9.60292 7.66454C9.60292 8.07093 9.82526 8.46073 10.2212 8.74841C10.9045 9.24383 11.0212 10.0051 10.6345 10.6479C10.5738 10.7491 10.5154 10.851 10.4595 10.9536C10.1062 11.6049 9.27951 12.0834 8.31617 12.0834C7.14784 12.0834 6.20117 12.7697 6.20117 13.6168V15.3834C6.20117 16.2304 7.14784 16.9167 8.31617 16.9167C9.27951 16.9167 10.1062 17.3952 10.4595 18.0465C10.5173 18.1497 10.5756 18.2516 10.6345 18.3522C11.0195 18.9939 10.9028 19.7563 10.2212 20.2517C9.82526 20.5394 9.60292 20.9292 9.60292 21.3356C9.60292 21.742 9.82526 22.1318 10.2212 22.4195L11.9445 23.6689C12.3413 23.9559 12.879 24.1171 13.4395 24.1171C14 24.1171 14.5377 23.9559 14.9345 23.6689C15.6178 23.1735 16.6678 23.0889 17.5545 23.368C17.6934 23.4123 17.8339 23.455 17.9762 23.4961C18.8745 23.7523 19.5345 24.3516 19.5345 25.05C19.5345 25.8971 20.4812 26.5834 21.6495 26.5834H24.0862C25.2545 26.5834 26.2012 25.8971 26.2012 25.05C26.2012 24.3516 26.8612 23.7523 27.7595 23.4949C27.9017 23.4546 28.0423 23.4127 28.1812 23.3692C29.0662 23.0889 30.1178 23.1747 30.7995 23.6689C31.1964 23.9563 31.7344 24.1177 32.2953 24.1177C32.8563 24.1177 33.3943 23.9563 33.7912 23.6689L35.5145 22.4195C35.9104 22.1318 36.1328 21.742 36.1328 21.3356C36.1328 20.9292 35.9104 20.5394 35.5145 20.2517C34.8312 19.7563 34.7145 18.9951 35.0995 18.3522C35.1606 18.2516 35.2195 18.1497 35.2762 18.0465C35.6295 17.3952 36.4562 16.9167 37.4195 16.9167C38.5878 16.9167 39.5345 16.2304 39.5345 15.3834V13.618C39.5345 12.771 38.5878 12.0846 37.4195 12.0846C36.4562 12.0846 35.6295 11.6061 35.2745 10.9548C35.2186 10.8522 35.1602 10.7503 35.0995 10.6491C34.7162 10.0075 34.8328 9.24504 35.5145 8.74962C35.9104 8.46193 36.1328 8.07214 36.1328 7.66575C36.1328 7.25936 35.9104 6.86956 35.5145 6.58187L33.7912 5.33246C33.3944 5.04542 32.8567 4.88422 32.2962 4.88422C31.7356 4.88422 31.198 5.04542 30.8012 5.33246C30.1178 5.82787 29.0678 5.91246 28.1812 5.63333C28.0416 5.58889 27.9011 5.54619 27.7595 5.50525C26.8612 5.24787 26.2012 4.64733 26.2012 3.95012Z" stroke="#F8F8F8" stroke-width="3"/>
<path d="M29.5345 14.5001C29.5345 15.782 28.8321 17.0113 27.5819 17.9178C26.3316 18.8242 24.6359 19.3334 22.8678 19.3334C21.0997 19.3334 19.404 18.8242 18.1538 17.9178C16.9036 17.0113 16.2012 15.782 16.2012 14.5001C16.2012 13.2182 16.9036 11.9888 18.1538 11.0824C19.404 10.176 21.0997 9.66675 22.8678 9.66675C24.6359 9.66675 26.3316 10.176 27.5819 11.0824C28.8321 11.9888 29.5345 13.2182 29.5345 14.5001Z" stroke="#F8F8F8" stroke-width="3"/>
</g>
<defs>
<filter id="filter0_d_762_353" x="-1.13281" y="0" width="48" height="37" filterUnits="userSpaceOnUse" color-interpolation-filters="sRGB">
<feFlood flood-opacity="0" result="BackgroundImageFix"/>
<feColorMatrix in="SourceAlpha" type="matrix" values="0 0 0 0 0 0 0 0 0 0 0 0 0 0 0 0 0 0 127 0" result="hardAlpha"/>
<feOffset dy="4"/>
<feGaussianBlur stdDeviation="2"/>
<feComposite in2="hardAlpha" operator="out"/>
<feColorMatrix type="matrix" values="0 0 0 0 0 0 0 0 0 0 0 0 0 0 0 0 0 0 0.25 0"/>
<feBlend mode="normal" in2="BackgroundImageFix" result="effect1_dropShadow_762_353"/>
<feBlend mode="normal" in="SourceGraphic" in2="effect1_dropShadow_762_353" result="shape"/>
</filter>
</defs>
</svg>
