<svg width="36" height="32" viewBox="0 0 36 32" fill="none" xmlns="http://www.w3.org/2000/svg">
<path d="M14.9644 17.7547H20.0922V16.4921H14.9644V17.7547ZM14.9644 13.9668H25.2229V12.7041H14.9644V13.9668ZM14.9644 10.1788H25.2229V8.91613H14.9644V10.1788ZM12.1884 22.174C11.5096 22.174 10.9433 21.9796 10.4894 21.5907C10.0356 21.2018 9.80819 20.7165 9.80721 20.1349V6.53602C9.80721 5.9552 10.0346 5.46992 10.4894 5.08018C10.9443 4.69044 11.5106 4.49599 12.1884 4.49683H28.0564C28.7343 4.49683 29.3006 4.69128 29.7554 5.08018C30.2102 5.46908 30.4371 5.95436 30.4361 6.53602V20.1349C30.4361 20.7157 30.2092 21.2005 29.7554 21.5894C29.3015 21.9783 28.7347 22.1732 28.055 22.174H12.1884ZM7.76789 25.962C7.0891 25.962 6.52278 25.7676 6.06895 25.3787C5.61511 24.9898 5.3877 24.5045 5.38672 23.9228V9.06134H6.86021V23.9228C6.86021 24.1164 6.95452 24.2945 7.14313 24.4569C7.33173 24.6194 7.5395 24.7002 7.76641 24.6994H25.1095V25.962H7.76789Z" fill="#F8F8F8"/>
</svg>
